<svg version="1.1" id="Layer_1" xmlns="http://www.w3.org/2000/svg" xmlns:xlink="http://www.w3.org/1999/xlink" x="0px" y="0px" width="82px" height="82px" viewBox="0 0 82 82" enable-background="new 0 0 82 82" xml:space="preserve">
<g>
	<g>
		<path fill='#ff4a6e' d="M77,17c0-6.305-5.691-12-12-12H17C10.691,5,5,10.695,5,17v48c0,6.307,5.691,12,12,12h24V49.801h-8.801v-12
			H41v-4.676c0-8.063,6.055-15.324,13.5-15.324h9.699v12H54.5c-1.062,0-2.301,1.289-2.301,3.219v4.781h12v12h-12V77H65
			c6.309,0,12-5.693,12-12V17z"></path>
	</g>
	<g>
		<path fill='#ff4a6e' d="M77,17c0-6.305-5.691-12-12-12H17C10.691,5,5,10.695,5,17v48c0,6.307,5.691,12,12,12h24V49.801h-8.801v-12H41v-4.676
			c0-8.063,6.055-15.324,13.5-15.324h9.699v12H54.5c-1.062,0-2.301,1.289-2.301,3.219v4.781h12v12h-12V77H65c6.309,0,12-5.693,12-12
			V17z"></path>
	</g>
</g>
</svg>