<svg version="1.1" id="Layer_1" xmlns="http://www.w3.org/2000/svg" xmlns:xlink="http://www.w3.org/1999/xlink" x="0px" y="0px" width="109px" height="109px" viewBox="0 0 109 109" enable-background="new 0 0 109 109" xml:space="preserve">
<circle cx="54.5" cy="54.5" r="54" fill='#ff4a6e'></circle>
<g>
	<path fill="#FFFFFF" d="M44.09,41.615l-4.819-4.556c0.557-1.019,0.912-2.17,0.912-3.413c0-3.947-3.198-7.144-7.146-7.144
		c-3.948,0-7.147,3.197-7.147,7.144c0,3.939,3.2,7.139,7.147,7.139c1.389,0,2.68-0.412,3.775-1.103l4.81,4.548
		C42.353,43.268,43.168,42.388,44.09,41.615L44.09,41.615z"></path>
	<path fill="#FFFFFF" d="M64.45,41.041l6.397-10.764c0.633,0.179,1.283,0.312,1.975,0.312c3.947,0,7.146-3.2,7.146-7.147
		c0-3.939-3.198-7.137-7.146-7.137s-7.139,3.19-7.139,7.137c0,1.958,0.789,3.735,2.063,5.025L61.366,39.2
		C62.469,39.7,63.497,40.317,64.45,41.041L64.45,41.041z"></path>
	<path fill="#FFFFFF" d="M86.516,50.054c-3.067,0-5.666,1.958-6.679,4.679l-8.892-0.88c0,0.066,0.011,0.131,0.011,0.196
		c0,1.16-0.124,2.294-0.354,3.389l8.883,0.873c0.543,3.412,3.471,6.025,7.031,6.025c3.946,0,7.146-3.197,7.146-7.136
		C93.661,53.254,90.462,50.054,86.516,50.054L86.516,50.054z"></path>
	<path fill="#FFFFFF" d="M61.992,78.139l-1.99-8.686c-1.119,0.386-2.286,0.665-3.504,0.807l1.99,8.693
		c-2.286,1.191-3.858,3.551-3.858,6.307c0,3.938,3.192,7.137,7.147,7.137c3.938,0,7.139-3.197,7.139-7.137
		C68.916,81.386,65.832,78.254,61.992,78.139L61.992,78.139z"></path>
	<path fill="#FFFFFF" d="M38.677,57.495l-11.061,3.71c-1.273-1.95-3.478-3.24-5.977-3.24c-3.947,0-7.139,3.189-7.139,7.139
		c0,3.947,3.192,7.146,7.139,7.146c3.947,0,7.146-3.2,7.146-7.146c0-0.166-0.032-0.321-0.048-0.478l11.101-3.718
		C39.335,59.823,38.94,58.688,38.677,57.495L38.677,57.495z"></path>
	<path fill="#FFFFFF" d="M66.877,54.049c0,6.768-5.479,12.247-12.247,12.247c-6.758,0-12.244-5.479-12.244-12.247
		c0-6.758,5.486-12.245,12.244-12.245C61.398,41.805,66.877,47.292,66.877,54.049L66.877,54.049z"></path>
</g>
</svg>