<svg version="1.1" id="Layer_1" xmlns="http://www.w3.org/2000/svg" xmlns:xlink="http://www.w3.org/1999/xlink" x="0px" y="0px" width="109px" height="109px" viewBox="0 0 109 109" enable-background="new 0 0 109 109" xml:space="preserve">
<circle cx="54.5" cy="54.5" r="54" fill='#ff4a6e'></circle>
<g>
	<g>
		<path fill="#FFFFFF" d="M51.788,52.386c-1.138-0.396-1.612-0.641-1.612-1.117c0-0.849,0.878-1.074,1.342-1.074
			c0.893,0,1.074,0.361,1.074,0.904v0.043c0,0.39,0.317,0.707,0.708,0.707h0.182c0.389,0,0.706-0.316,0.706-0.707v-1.226
			c0-0.198-0.082-0.387-0.228-0.521c-0.443-0.406-1.018-0.633-1.749-0.686v-0.805c0-0.391-0.316-0.707-0.707-0.707h-0.17
			c-0.39,0-0.706,0.316-0.706,0.707v0.859c-1.066,0.295-2.077,1.268-2.077,2.561c0,1.543,1.359,2.008,2.56,2.418
			c1.245,0.428,1.765,0.704,1.765,1.312c0,0.881-0.916,1.117-1.455,1.117c-0.547,0-1.224-0.156-1.406-0.414
			c-0.079-0.113-0.134-0.336-0.16-0.66c-0.029-0.368-0.336-0.651-0.703-0.651h-0.145c-0.188,0-0.368,0.076-0.502,0.209
			c-0.132,0.135-0.207,0.316-0.205,0.504l0.012,1.39c0.002,0.315,0.213,0.591,0.516,0.675c0.031,0.01,0.072,0.02,0.113,0.027
			l0.033,0.008c0.629,0.176,1.2,0.327,1.655,0.387v1.168c0,0.392,0.316,0.707,0.706,0.707h0.17c0.391,0,0.707-0.315,0.707-0.707
			V57.62c1.175-0.247,2.289-1.222,2.289-2.593C54.5,53.337,52.996,52.81,51.788,52.386L51.788,52.386z"></path>
		<path fill="#FFFFFF" d="M88.283,29.563v-13.1c-3.705,1.625-10.678,3.949-13.924,4.135c-3.246,0.184-18.496-2.211-22.627-1.177
			c-3.324,0.833-21.582,14.571-27.028,18.36c-8.694,6.049-1,7.019,2.651,5.619c3.672-1.408,15.512-8.021,15.512-8.021
			c-0.038,1.34,0.164,3.235,1.363,5.284c0,0,1.354,1.899,2.979,3.76c-3.504,1.598-5.945,5.132-5.945,9.228
			c0,3.479,1.762,6.554,4.439,8.38H28.182c-0.971,0-1.756,0.785-1.756,1.757v26.987c0,0.973,0.785,1.759,1.756,1.759h46.436
			c0.971,0,1.758-0.786,1.758-1.759V63.789c0-0.971-0.787-1.757-1.758-1.757H57.096c2.678-1.826,4.439-4.9,4.439-8.38
			c0-2.543-0.943-4.868-2.494-6.649c-0.02-0.016-0.035-0.032-0.051-0.05c2.533-1.262,5.195-3.523,11.639-6.159
			C81.482,36.354,85.158,31.312,88.283,29.563L88.283,29.563z M58.381,39.842c-2.035,1.437-3.422,2.839-4.232,4.055
			c-0.456-0.129-0.925-0.226-1.404-0.291c-0.42-1.357-1.141-3.144-2.238-5.509c0,0-0.504-1.186-0.338-2.602
			c0.414-1.584,1.845-3.283,5.886-3.805c6.807-0.878,7.771,2.562,4.696,6.145C60.094,38.515,59.301,39.192,58.381,39.842
			L58.381,39.842z M59.34,66.219c0.965,0,1.75,0.785,1.75,1.752c0,0.965-0.785,1.75-1.75,1.75H43.46
			c-0.966,0-1.751-0.785-1.751-1.75c0-0.967,0.785-1.752,1.751-1.752H59.34z M51.399,61.118c-4.116,0-7.468-3.349-7.468-7.467
			c0-4.117,3.352-7.467,7.468-7.467c0.608,0,1.198,0.074,1.763,0.212c0,1.184,0.921,1.858,2.439,1.708
			c0.231-0.021,0.459-0.055,0.68-0.096c1.582,1.371,2.584,3.391,2.584,5.643C58.865,57.77,55.518,61.118,51.399,61.118
			L51.399,61.118z"></path>
	</g>
</g>
</svg>