<svg version="1.1" id="Layer_1" xmlns="http://www.w3.org/2000/svg" xmlns:xlink="http://www.w3.org/1999/xlink" x="0px" y="0px" width="109px" height="109px" viewBox="0 0 109 109" enable-background="new 0 0 109 109" xml:space="preserve">
<circle cx="54.5" cy="54.5" r="54" fill='#ff4a6e'></circle>
<g>
	<g>
		<g>
			<defs>
				<rect id="SVGID_1_" x="25.169" y="11.216" width="58.662" height="86.568"></rect>
			</defs>
			<clipPath id="SVGID_2_">
				<use xlink:href="#SVGID_1_" overflow="visible"></use>
			</clipPath>
			<path clip-path="url(#SVGID_2_)" fill="#EF4D6F" d="M56.85,51.82c-2.269,0.001-4.539,0.004-6.809,0
				c-1.382-0.003-1.755-0.369-1.738-1.769c0.009-0.655,0.045-7.512,0.008-9.849c-0.025-1.611-0.396-2.21-1.893-2.809
				c-2.162-0.866-4.33-1.723-6.488-2.6c-2.056-0.834-4.097-1.71-6.159-2.531c-1.521-0.605-3.062-1.16-4.602-1.721
				c-1.631-0.595-3.05-1.5-3.749-3.13c-0.283-0.658-0.324-1.55-0.139-2.246c0.256-0.959,0.694-1.92,1.672-2.468
				c0.783-0.437,1.432-1.205,2.466-0.978c0.601,0.131,1.196,0.292,1.785,0.472c0.203,0.062,0.365,0.25,0.566,0.329
				c1.524,0.596,3.053,1.177,4.578,1.771c0.339,0.131,0.664,0.298,0.999,0.443c0.533,0.231,1.066,0.465,1.606,0.683
				c0.807,0.328,1.62,0.643,2.43,0.966c0.103,0.04,0.194,0.106,0.295,0.146c1.492,0.587,2.982,1.174,4.476,1.756
				c1.19,0.465,2.369,0.965,3.58,1.366c0.681,0.226,1.413,0.364,2.129,0.397c1.316,0.062,2.64-0.049,3.954,0.029
				c2.154,0.128,4.115-0.456,6.01-1.396c0.395-0.194,0.818-0.32,1.22-0.495c0.701-0.304,1.392-0.629,2.097-0.928
				c0.401-0.171,0.82-0.301,1.229-0.461c1.555-0.616,3.111-1.225,4.658-1.862c0.539-0.222,1.059-0.494,1.568-0.777
				c0.713-0.394,0.91-0.717,0.596-1.422c-0.709-1.601-1.51-6.678-1.564-8.363c-0.121-1.183,1.082-2.062,2.186-2.65
				c1.227-0.455,2.709-0.854,4.014-0.044c0.967,0.602,1.688,1.333,2.064,3.026c0.379,1.692,0.965,4.346,1.475,6.513
				c0.273,1.169,0.552,2.345,0.936,3.48c0.956,2.824-0.623,4.694-2.896,5.841c-0.776,0.392-1.588,0.726-2.396,1.047
				c-1.455,0.578-2.938,1.094-4.383,1.696c-1.578,0.656-5.634,2.472-6.124,2.606c-0.71,0.195-1.058,0.66-1.047,1.355
				c0.045,3.142,0.019,12.046-0.001,12.919c-0.033,1.394-0.253,1.644-1.686,1.65C61.463,51.827,59.157,51.819,56.85,51.82
				L56.85,51.82z"></path>
		</g>
		<g>
			<defs>
				<rect id="SVGID_3_" x="25.169" y="11.216" width="58.662" height="86.568"></rect>
			</defs>
			<clipPath id="SVGID_4_">
				<use xlink:href="#SVGID_3_" overflow="visible"></use>
			</clipPath>
			<path clip-path="url(#SVGID_4_)" fill="#EF4D6F" d="M55.838,57.096c2.307,0,4.614,0,6.922,0c1.377,0,1.785,0.438,1.398,1.725
				c-0.58,1.923-1.059,3.865-1.541,5.812c-0.424,1.695-0.859,3.4-1.358,5.074c-0.446,1.507-0.905,2.998-1.217,4.543
				c-0.289,1.433,0.065,2.632,0.931,3.794c0.756,1.018,1.346,2.158,2.023,3.234c0.582,0.924,1.182,1.832,1.779,2.74
				c0.121,0.184,1.619,2.672,2.264,3.728c0.588,0.96,1.213,1.903,1.865,2.823c1.147,1.617,1.266,3.418,0.471,5.104
				c-0.551,1.165-1.624,2.006-3.121,2.1c-2.104,0.136-3.41-0.897-4.431-2.595c-1.13-1.875-2.351-3.694-3.531-5.541
				c-0.431-0.675-0.877-1.342-1.292-2.026c-0.658-1.09-1.283-2.198-1.945-3.284c-0.569-0.933-1.156-1.854-1.756-2.767
				c-0.56-0.852-1.183-1.664-1.708-2.535c-0.235-0.393-0.386-0.883-0.42-1.338c-0.146-1.996,0.082-3.937,0.912-5.795
				c0.295-0.66,0.39-1.406,0.606-2.104c0.226-0.727,0.442-1.458,0.749-2.151c0.325-0.735,0.42-1.481,0.3-2.25
				c-0.031-0.196-0.268-0.435-0.462-0.505c-0.125-0.047-0.399,0.143-0.517,0.295c-0.15,0.196-0.193,0.471-0.313,0.695
				c-0.255,0.477-0.549,0.932-0.792,1.413c-0.245,0.483-0.448,0.991-0.671,1.487c-0.267,0.59-0.534,1.181-0.804,1.771
				c-0.061,0.132-0.152,0.25-0.211,0.384c-0.812,1.834-1.632,3.666-2.422,5.512c-0.169,0.396-0.312,0.842-0.316,1.267
				c-0.029,2.803-1.396,10.638-1.574,11.827c-0.265,1.77-0.582,3.531-0.903,5.292c-0.559,3.069-4.858,3.819-6.722,1.866
				c-1.277-1.342-1.557-2.768-1.312-4.414c0.289-1.949,0.705-3.877,1.017-5.824c0.184-1.149,1.645-11.629,1.759-12.68
				c0.019-0.182,0.032-0.377,0.111-0.535c0.527-1.075,1.066-2.145,1.616-3.209c0.115-0.226,1.575-3.309,2.159-4.643
				c0.173-0.398,0.402-0.773,0.601-1.165c0.216-0.42,0.43-0.843,0.638-1.268c0.253-0.521,0.504-1.048,0.746-1.576
				c0.183-0.399,0.327-0.813,0.521-1.206c0.406-0.812,0.794-1.643,1.269-2.414c0.359-0.585,0.999-0.674,1.652-0.663
				c1.172,0.019,2.345,0.011,3.516,0.011c1.172,0,2.345,0,3.517,0C55.838,57.104,55.838,57.102,55.838,57.096L55.838,57.096z"></path>
		</g>
		<g>
			<defs>
				<rect id="SVGID_5_" x="25.169" y="11.216" width="58.662" height="86.568"></rect>
			</defs>
			<clipPath id="SVGID_6_">
				<use xlink:href="#SVGID_5_" overflow="visible"></use>
			</clipPath>
			<path clip-path="url(#SVGID_6_)" fill="#EF4D6F" d="M57.602,55.786c-1.94,0-3.884,0.055-5.823-0.015
				c-3.029-0.104-6.069-0.162-9.08-0.479c-2.646-0.277-5.271-0.824-7.879-1.371c-0.947-0.198-1.968-0.565-2.698-1.167
				c-1.211-0.998-1.734-2.407-0.199-3.711c0.738-0.626,1.604-0.932,2.526-1.232c2.035-0.663,4.125-0.929,6.226-1.173
				c1.596-0.186,3.19-0.392,4.79-0.517c0.988-0.077,1.624,0.36,1.7,0.999c0.082,0.685-0.504,1.386-1.424,1.537
				c-0.97,0.158-1.962,0.182-2.939,0.3c-1.703,0.207-3.405,0.416-5.1,0.676c-0.533,0.082-1.075,0.268-1.544,0.531
				c-0.266,0.149-0.56,0.566-0.533,0.833c0.026,0.265,0.396,0.6,0.688,0.711c0.469,0.179,0.995,0.223,1.503,0.282
				c0.906,0.106,1.821,0.152,2.725,0.276c0.792,0.109,1.57,0.334,2.363,0.433c1.375,0.172,2.755,0.35,4.139,0.412
				c2.812,0.124,5.627,0.196,8.441,0.244c2.162,0.036,4.324,0.059,6.481-0.011c2.335-0.073,4.519-0.135,6.999-0.369
				c2.328-0.207,4.262-0.638,6.398-0.876c0.869-0.097,1.742-0.175,2.615-0.263c0.107-0.011,0.221-0.019,0.324-0.046
				c0.508-0.136,1.067-0.3,1.123-0.893c0.061-0.615-0.545-0.688-0.977-0.853c-1.797-0.689-3.701-0.842-5.586-1.058
				c-1.447-0.166-2.92-0.132-4.372-0.278c-0.47-0.048-0.948-0.331-1.354-0.604c-0.438-0.296-0.726-0.727-0.484-1.323
				c0.234-0.583,0.774-0.942,1.496-0.882c0.652,0.055,1.3,0.189,1.951,0.269c1.664,0.204,3.328,0.469,5,0.578
				c2.217,0.144,4.328,0.743,6.406,1.421c1.859,0.684,1.688,0.971,2.01,1.469c0.318,0.498,0.493,1.503,0.045,2.226
				c-0.859,1.388-2.336,1.798-3.721,2.09c-3.176,0.813-9.354,1.568-9.729,1.591C69.736,55.568,57.604,55.816,57.602,55.786
				L57.602,55.786z"></path>
		</g>
		<g>
			<defs>
				<rect id="SVGID_7_" x="25.169" y="11.216" width="58.662" height="86.568"></rect>
			</defs>
			<clipPath id="SVGID_8_">
				<use xlink:href="#SVGID_7_" overflow="visible"></use>
			</clipPath>
			<path clip-path="url(#SVGID_8_)" fill="#EF4D6F" d="M59.732,21.595c0,3.476-2.816,6.294-6.292,6.294s-6.293-2.818-6.293-6.294
				c0-3.476,2.817-6.293,6.293-6.293S59.732,18.12,59.732,21.595L59.732,21.595z"></path>
		</g>
		<g>
			<defs>
				<rect id="SVGID_9_" x="25.169" y="11.216" width="58.662" height="86.568"></rect>
			</defs>
			<clipPath id="SVGID_10_">
				<use xlink:href="#SVGID_9_" overflow="visible"></use>
			</clipPath>
			<path clip-path="url(#SVGID_10_)" fill="#FFFFFF" d="M56.85,51.82c-2.269,0.001-4.539,0.004-6.809,0
				c-1.382-0.003-1.755-0.369-1.738-1.769c0.009-0.655,0.045-7.512,0.008-9.849c-0.025-1.611-0.396-2.21-1.893-2.809
				c-2.162-0.866-4.33-1.723-6.488-2.6c-2.056-0.834-4.097-1.71-6.159-2.531c-1.521-0.605-3.062-1.16-4.602-1.721
				c-1.631-0.595-3.05-1.5-3.749-3.13c-0.283-0.658-0.324-1.55-0.139-2.246c0.256-0.959,0.694-1.92,1.672-2.468
				c0.783-0.437,1.432-1.205,2.466-0.978c0.601,0.131,1.196,0.292,1.785,0.472c0.203,0.062,0.365,0.25,0.566,0.329
				c1.524,0.596,3.053,1.177,4.578,1.771c0.339,0.131,0.664,0.298,0.999,0.443c0.533,0.231,1.066,0.465,1.606,0.683
				c0.807,0.328,1.62,0.643,2.43,0.966c0.103,0.04,0.194,0.106,0.295,0.146c1.492,0.587,2.982,1.174,4.476,1.756
				c1.19,0.465,2.369,0.965,3.58,1.366c0.681,0.226,1.413,0.364,2.129,0.397c1.316,0.062,2.64-0.049,3.954,0.029
				c2.154,0.128,4.115-0.456,6.01-1.396c0.395-0.194,0.818-0.32,1.22-0.495c0.701-0.304,1.392-0.629,2.097-0.928
				c0.401-0.171,0.82-0.301,1.229-0.461c1.555-0.616,3.111-1.225,4.658-1.862c0.539-0.222,1.059-0.494,1.568-0.777
				c0.713-0.394,0.91-0.717,0.596-1.422c-0.709-1.601-1.51-6.678-1.564-8.363c-0.121-1.183,1.082-2.062,2.186-2.65
				c1.227-0.455,2.709-0.854,4.014-0.044c0.967,0.602,1.688,1.333,2.064,3.026c0.379,1.692,0.965,4.346,1.475,6.513
				c0.273,1.169,0.552,2.345,0.936,3.48c0.956,2.824-0.623,4.694-2.896,5.841c-0.776,0.392-1.588,0.726-2.396,1.047
				c-1.455,0.578-2.938,1.094-4.383,1.696c-1.578,0.656-5.634,2.472-6.124,2.606c-0.71,0.195-1.058,0.66-1.047,1.355
				c0.045,3.142,0.019,12.046-0.001,12.919c-0.033,1.394-0.253,1.644-1.686,1.65C61.463,51.827,59.157,51.819,56.85,51.82
				L56.85,51.82z"></path>
		</g>
		<g>
			<defs>
				<rect id="SVGID_11_" x="25.169" y="11.216" width="58.662" height="86.568"></rect>
			</defs>
			<clipPath id="SVGID_12_">
				<use xlink:href="#SVGID_11_" overflow="visible"></use>
			</clipPath>
			<path clip-path="url(#SVGID_12_)" fill="#FFFFFF" d="M55.838,57.096c2.307,0,4.614,0,6.922,0c1.377,0,1.785,0.438,1.398,1.725
				c-0.58,1.923-1.059,3.865-1.541,5.812c-0.424,1.695-0.859,3.4-1.358,5.074c-0.446,1.507-0.905,2.998-1.217,4.543
				c-0.289,1.433,0.065,2.632,0.931,3.794c0.756,1.018,1.346,2.158,2.023,3.234c0.582,0.924,1.182,1.832,1.779,2.74
				c0.121,0.184,1.619,2.672,2.264,3.728c0.588,0.96,1.213,1.903,1.865,2.823c1.147,1.617,1.266,3.418,0.471,5.104
				c-0.551,1.165-1.624,2.006-3.121,2.1c-2.104,0.136-3.41-0.897-4.431-2.595c-1.13-1.875-2.351-3.694-3.531-5.541
				c-0.431-0.675-0.877-1.342-1.292-2.026c-0.658-1.09-1.283-2.198-1.945-3.284c-0.569-0.933-1.156-1.854-1.756-2.767
				c-0.56-0.852-1.183-1.664-1.708-2.535c-0.235-0.393-0.386-0.883-0.42-1.338c-0.146-1.996,0.082-3.937,0.912-5.795
				c0.295-0.66,0.39-1.406,0.606-2.104c0.226-0.727,0.442-1.458,0.749-2.151c0.325-0.735,0.42-1.481,0.3-2.25
				c-0.031-0.196-0.268-0.435-0.462-0.505c-0.125-0.047-0.399,0.143-0.517,0.295c-0.15,0.196-0.193,0.471-0.313,0.695
				c-0.255,0.477-0.549,0.932-0.792,1.413c-0.245,0.483-0.448,0.991-0.671,1.487c-0.267,0.59-0.534,1.181-0.804,1.771
				c-0.061,0.132-0.152,0.25-0.211,0.384c-0.812,1.834-1.632,3.666-2.422,5.512c-0.169,0.396-0.312,0.842-0.316,1.267
				c-0.029,2.803-1.396,10.638-1.574,11.827c-0.265,1.77-0.582,3.531-0.903,5.292c-0.559,3.069-4.858,3.819-6.722,1.866
				c-1.277-1.342-1.557-2.768-1.312-4.414c0.289-1.949,0.705-3.877,1.017-5.824c0.184-1.149,1.645-11.629,1.759-12.68
				c0.019-0.182,0.032-0.377,0.111-0.535c0.527-1.075,1.066-2.145,1.616-3.209c0.115-0.226,1.575-3.309,2.159-4.643
				c0.173-0.398,0.402-0.773,0.601-1.165c0.216-0.42,0.43-0.843,0.638-1.268c0.253-0.521,0.504-1.048,0.746-1.576
				c0.183-0.399,0.327-0.813,0.521-1.206c0.406-0.812,0.794-1.643,1.269-2.414c0.359-0.585,0.999-0.674,1.652-0.663
				c1.172,0.019,2.345,0.011,3.516,0.011c1.172,0,2.345,0,3.517,0C55.838,57.104,55.838,57.102,55.838,57.096L55.838,57.096z"></path>
		</g>
		<g>
			<defs>
				<rect id="SVGID_13_" x="25.169" y="11.216" width="58.662" height="86.568"></rect>
			</defs>
			<clipPath id="SVGID_14_">
				<use xlink:href="#SVGID_13_" overflow="visible"></use>
			</clipPath>
			<path clip-path="url(#SVGID_14_)" fill="#FFFFFF" d="M57.602,55.786c-1.94,0-3.884,0.055-5.823-0.015
				c-3.029-0.104-6.069-0.162-9.08-0.479c-2.646-0.277-5.271-0.824-7.879-1.371c-0.947-0.198-1.968-0.565-2.698-1.167
				c-1.211-0.998-1.734-2.407-0.199-3.711c0.738-0.626,1.604-0.932,2.526-1.232c2.035-0.663,4.125-0.929,6.226-1.173
				c1.596-0.186,3.19-0.392,4.79-0.517c0.988-0.077,1.624,0.36,1.7,0.999c0.082,0.685-0.504,1.386-1.424,1.537
				c-0.97,0.158-1.962,0.182-2.939,0.3c-1.703,0.207-3.405,0.416-5.1,0.676c-0.533,0.082-1.075,0.268-1.544,0.531
				c-0.266,0.149-0.56,0.566-0.533,0.833c0.026,0.265,0.396,0.6,0.688,0.711c0.469,0.179,0.995,0.223,1.503,0.282
				c0.906,0.106,1.821,0.152,2.725,0.276c0.792,0.109,1.57,0.334,2.363,0.433c1.375,0.172,2.755,0.35,4.139,0.412
				c2.812,0.124,5.627,0.196,8.441,0.244c2.162,0.036,4.324,0.059,6.481-0.011c2.335-0.073,4.519-0.135,6.999-0.369
				c2.328-0.207,4.262-0.638,6.398-0.876c0.869-0.097,1.742-0.175,2.615-0.263c0.107-0.011,0.221-0.019,0.324-0.046
				c0.508-0.136,1.067-0.3,1.123-0.893c0.061-0.615-0.545-0.688-0.977-0.853c-1.797-0.689-3.701-0.842-5.586-1.058
				c-1.447-0.166-2.92-0.132-4.372-0.278c-0.47-0.048-0.948-0.331-1.354-0.604c-0.438-0.296-0.726-0.727-0.484-1.323
				c0.234-0.583,0.774-0.942,1.496-0.882c0.652,0.055,1.3,0.189,1.951,0.269c1.664,0.204,3.328,0.469,5,0.578
				c2.217,0.144,4.328,0.743,6.406,1.421c1.859,0.684,1.688,0.971,2.01,1.469c0.318,0.498,0.493,1.503,0.045,2.226
				c-0.859,1.388-2.336,1.798-3.721,2.09c-3.176,0.813-9.354,1.568-9.729,1.591C69.736,55.568,57.604,55.816,57.602,55.786
				L57.602,55.786z"></path>
		</g>
	</g>
	<path fill="#FFFFFF" d="M59.732,21.595c0,3.476-2.816,6.294-6.292,6.294s-6.293-2.818-6.293-6.294c0-3.476,2.817-6.293,6.293-6.293
		S59.732,18.12,59.732,21.595L59.732,21.595z"></path>
</g>
</svg>