<svg version="1.1" id="Layer_1" xmlns="http://www.w3.org/2000/svg" xmlns:xlink="http://www.w3.org/1999/xlink" x="0px" y="0px" width="200px" height="200px" viewBox="0 0 200 200" enable-background="new 0 0 200 200" xml:space="preserve">
<g>
	<g>
		<g>
			<g>
				<defs>
					<rect id="SVGID_1_" x="2.666" y="2.621" width="194.667" height="194.759"></rect>
				</defs>
				<clipPath id="SVGID_2_">
					<use xlink:href="#SVGID_1_" overflow="visible"></use>
				</clipPath>
				<path clip-path="url(#SVGID_2_)" d="M168.757,31.182C130.833-6.741,69.14-6.741,31.227,31.172
					c-37.923,37.923-37.923,99.617,0,137.539c37.913,37.914,99.607,37.914,137.521-0.008
					C206.669,130.789,206.669,69.095,168.757,31.182L168.757,31.182z M158.143,158.096c-32.062,32.069-84.241,32.078-116.311,0.01
					c-32.077-32.069-32.067-84.258,0-116.327c32.07-32.06,84.241-32.069,116.318,0.009
					C190.21,73.847,190.21,126.036,158.143,158.096L158.143,158.096z M63.717,73.623c0-6.273,5.083-11.366,11.365-11.366
					c6.275,0,11.358,5.093,11.358,11.366c0,6.284-5.083,11.367-11.358,11.367C68.799,84.99,63.717,79.907,63.717,73.623
					L63.717,73.623z M115.251,73.623c0-6.273,5.095-11.366,11.367-11.366s11.366,5.093,11.366,11.366
					c0,6.284-5.084,11.367-11.366,11.367C120.346,84.99,115.251,79.907,115.251,73.623L115.251,73.623z M142.121,120.177
					c-7.044,16.287-23.539,26.812-42.021,26.812c-18.885,0-35.479-10.57-42.283-26.949c-1.163-2.801,0.164-6.022,2.974-7.187
					c0.689-0.287,1.404-0.418,2.103-0.418c2.158,0,4.207,1.276,5.083,3.39c5.094,12.253,17.696,20.173,32.123,20.173
					c14.095,0,26.626-7.93,31.935-20.182c1.199-2.793,4.438-4.082,7.224-2.873C142.048,114.152,143.33,117.391,142.121,120.177
					L142.121,120.177z"></path>
			</g>
		</g>
	</g>
	<g>
		<g>
			<g>
				<defs>
					<rect id="SVGID_3_" x="2.666" y="2.621" width="194.667" height="194.759"></rect>
				</defs>
				<clipPath id="SVGID_4_">
					<use xlink:href="#SVGID_3_" overflow="visible"></use>
				</clipPath>
				<path clip-path="url(#SVGID_4_)" d="M168.757,31.182C130.833-6.741,69.14-6.741,31.227,31.172
					c-37.923,37.923-37.923,99.617,0,137.539c37.913,37.914,99.607,37.914,137.521-0.008
					C206.669,130.789,206.669,69.095,168.757,31.182L168.757,31.182z M158.143,158.096c-32.062,32.069-84.241,32.078-116.311,0.01
					c-32.077-32.069-32.067-84.258,0-116.327c32.07-32.06,84.241-32.069,116.318,0.009
					C190.21,73.847,190.21,126.036,158.143,158.096L158.143,158.096z M63.717,73.623c0-6.273,5.083-11.366,11.365-11.366
					c6.275,0,11.358,5.093,11.358,11.366c0,6.284-5.083,11.367-11.358,11.367C68.799,84.99,63.717,79.907,63.717,73.623
					L63.717,73.623z M115.251,73.623c0-6.273,5.095-11.366,11.367-11.366s11.366,5.093,11.366,11.366
					c0,6.284-5.084,11.367-11.366,11.367C120.346,84.99,115.251,79.907,115.251,73.623L115.251,73.623z M142.121,120.177
					c-7.044,16.287-23.539,26.812-42.021,26.812c-18.885,0-35.479-10.57-42.283-26.949c-1.163-2.801,0.164-6.022,2.974-7.187
					c0.689-0.287,1.404-0.418,2.103-0.418c2.158,0,4.207,1.276,5.083,3.39c5.094,12.253,17.696,20.173,32.123,20.173
					c14.095,0,26.626-7.93,31.935-20.182c1.199-2.793,4.438-4.082,7.224-2.873C142.048,114.152,143.33,117.391,142.121,120.177
					L142.121,120.177z"></path>
			</g>
		</g>
	</g>
</g>
</svg>