<svg version="1.1" id="Layer_1" xmlns="http://www.w3.org/2000/svg" xmlns:xlink="http://www.w3.org/1999/xlink" x="0px" y="0px" width="25.75px" height="30.75px" viewBox="0 0 25.75 30.75" enable-background="new 0 0 25.75 30.75" xml:space="preserve">
<g>
	<g>
		<path fill="#EF4C6F" d="M12.41,6c-5.336,0-9.66,4.324-9.66,9.66c0,2.762,1.164,5.242,3.02,7.004l-0.325,5.379l4.59-3.025
			c0.762,0.189,1.555,0.308,2.375,0.308c5.336,0,9.66-4.328,9.66-9.664S17.746,6,12.41,6L12.41,6z M15.664,10.73h1.125l-0.793,3.293
			h-0.805L15.664,10.73z M15.461,14.387c0.355,0,0.602,0.254,0.602,0.609c0,0.414-0.305,0.711-0.711,0.711
			c-0.354,0-0.59-0.254-0.59-0.594C14.762,14.727,15.055,14.387,15.461,14.387L15.461,14.387z M14.254,10.527
			c0.305,0,0.523,0.203,0.523,0.516c0,0.371-0.285,0.59-0.617,0.59c-0.293,0-0.508-0.196-0.508-0.508
			C13.656,10.77,13.934,10.527,14.254,10.527L14.254,10.527z M14.551,12.074l-0.676,3.551h-1.047l0.676-3.551H14.551z M8.961,10.73
			h1.047l-0.363,1.911h1.781l0.363-1.911h1.047l-0.93,4.899h-1.047l0.383-2.059H9.473l-0.395,2.059H8.031L8.961,10.73z
			 M12.41,22.186c-2.668,0-4.832-2.119-4.832-3.336c0-1.221,2.164,0.049,4.832,0.049s4.832-1.27,4.832-0.049
			C17.242,20.066,15.078,22.186,12.41,22.186L12.41,22.186z"></path>
	</g>
	<g>
		<path d="M12.41,6c-5.336,0-9.66,4.324-9.66,9.66c0,2.762,1.164,5.242,3.02,7.004l-0.325,5.379l4.59-3.025
			c0.762,0.189,1.555,0.308,2.375,0.308c5.336,0,9.66-4.328,9.66-9.664S17.746,6,12.41,6L12.41,6z M15.664,10.73h1.125l-0.793,3.293
			h-0.805L15.664,10.73z M15.461,14.387c0.355,0,0.602,0.254,0.602,0.609c0,0.414-0.305,0.711-0.711,0.711
			c-0.354,0-0.59-0.254-0.59-0.594C14.762,14.727,15.055,14.387,15.461,14.387L15.461,14.387z M14.254,10.527
			c0.305,0,0.523,0.203,0.523,0.516c0,0.371-0.285,0.59-0.617,0.59c-0.293,0-0.508-0.196-0.508-0.508
			C13.656,10.77,13.934,10.527,14.254,10.527L14.254,10.527z M14.551,12.074l-0.676,3.551h-1.047l0.676-3.551H14.551z M8.961,10.73
			h1.047l-0.363,1.911h1.781l0.363-1.911h1.047l-0.93,4.899h-1.047l0.383-2.059H9.473l-0.395,2.059H8.031L8.961,10.73z
			 M12.41,22.186c-2.668,0-4.832-2.119-4.832-3.336c0-1.221,2.164,0.049,4.832,0.049s4.832-1.27,4.832-0.049
			C17.242,20.066,15.078,22.186,12.41,22.186L12.41,22.186z"></path>
	</g>
</g>
</svg>